<svg width="40" height="40" viewBox="0 0 40 40" fill="none" xmlns="http://www.w3.org/2000/svg">
<circle cx="20" cy="20" r="20" fill="#47B6D4"/>
<path d="M11.6667 16.6667V20.0008H12.5V25H11.6667V27.5H25L27.5 27.5008V27.5H28.3333V25H27.5V20.0008H28.3333V16.6667L20 11.6667L11.6667 16.6667ZM15 25V20.0008H16.6667V25H15ZM19.1667 25V20.0008H20.8333V25H19.1667ZM25 25H23.3333V20.0008H25V25ZM21.6667 16.6667C21.6666 16.8856 21.6234 17.1024 21.5396 17.3046C21.4558 17.5068 21.3329 17.6906 21.1781 17.8454C21.0233 18.0001 20.8394 18.1229 20.6372 18.2066C20.4349 18.2903 20.2181 18.3334 19.9992 18.3333C19.7802 18.3333 19.5635 18.2901 19.3612 18.2063C19.159 18.1225 18.9753 17.9996 18.8205 17.8448C18.6657 17.6899 18.543 17.5061 18.4592 17.3038C18.3755 17.1016 18.3325 16.8848 18.3325 16.6658C18.3326 16.2237 18.5084 15.7997 18.8211 15.4872C19.1338 15.1746 19.5579 14.9991 20 14.9992C20.4421 14.9993 20.8661 15.175 21.1787 15.4877C21.4913 15.8005 21.6668 16.2245 21.6667 16.6667Z" fill="white"/>
</svg>
